<?xml version="1.0" encoding="utf-8"?>
<!-- Generator: Adobe Illustrator 22.0.1, SVG Export Plug-In . SVG Version: 6.00 Build 0)  -->
<svg version="1.1" xmlns="http://www.w3.org/2000/svg" xmlns:xlink="http://www.w3.org/1999/xlink" x="0px" y="0px"
	 viewBox="0 0 91 92.2" style="enable-background:new 0 0 91 92.2;" xml:space="preserve">
<style type="text/css">
	.st0{fill:#F7931E;}
	.st1{fill:#C1272D;}
</style>
<g id="copa">
	<path d="M88.3,17c2,2.5,2.7,5.3,1.9,8.5c-0.7,3.4-1.8,6.6-3.4,9.4c-0.4,0.6-0.9,0.9-1.5,0.6c0.4-0.9,0.5-1.7,0.3-1.9
		c-0.2-0.2-0.8,0.2-1.5,0.9c-0.1-0.3-0.1-0.6,0.1-1c1.4-2.6,2.5-5.5,3.4-8.7c0.5-2.4,0-4.5-1.5-6.3c-1.5-1.8-3.4-2.8-5.8-2.8h-8.2
		v3.2h8.2c1.3,0,2.4,0.5,3.3,1.6c0.9,1.1,1.2,2.2,0.8,3.5c-1.2,5-3.2,9-6,12.2c-1.9,2.1-4.2,3.7-6.9,4.8c-0.3,1.3-0.8,2.5-1.2,3.7
		c4.1-1.2,7.7-3.3,10.7-6.4c0.4-0.5,2-2.7,3.2-4c0.1,0.3,0.3,0.5,0.7,0.6c0.2,0.1,0.3,0.2,0.5,0.3c-0.7,1.8-2.1,4.4-2.4,4.9
		c-3.8,4.1-8.5,6.7-14.2,7.8c-3.9,6.6-9.6,10.8-17,12.4C52.1,70.8,53.5,76.9,56,79h2.7c3,0,5.6,1,8,2.9c2.4,2,4.1,4.6,5.1,7.9
		c0.1,0.5,0.1,0.9-0.2,1.2c-0.2,0.3-0.6,0.5-1.1,0.5H58.3c-0.8,0-1.2-0.4-1.2-1.3s0.4-1.3,1.2-1.3h10.3c-2.2-4.9-5.6-7.3-9.9-7.3
		H33.5c-4.4,0-7.7,2.4-9.9,7.3h29.3c0.9,0,1.4,0.4,1.4,1.2c0,0.9-0.4,1.4-1.2,1.4H21.6c-0.4,0-0.7-0.2-1-0.5
		c-0.3-0.4-0.4-0.8-0.3-1.2c0.7-2.1,1.7-4,3-5.7c1.3-1.7,2.8-2.9,4.6-3.8c1.8-0.9,3.6-1.3,5.5-1.3h2.7c2.5-2.1,3.9-8.2,4.3-18.3
		c-7.5-1.7-13.1-5.8-17-12.4c-5.7-1.1-10.4-3.7-14.2-7.8c-3.4-3.9-5.9-8.9-7.3-14.9c-0.7-3.2-0.1-6,2-8.5c2-2.5,4.6-3.7,7.8-3.7h8.2
		V11h-0.9c-1.4,0-2.6-0.5-3.6-1.5c-1-1-1.5-2.2-1.5-3.6s0.5-2.6,1.5-3.6c1-1,2.2-1.5,3.6-1.5h54.3c1.4,0,2.6,0.5,3.6,1.5
		c1,1,1.5,2.2,1.5,3.6s-0.5,2.6-1.5,3.6c-1,1-2.2,1.5-3.6,1.5h-0.9v2.3h8.2C83.7,13.3,86.3,14.6,88.3,17z M82.1,23.6
		c0-0.5-0.2-0.9-0.4-1.2c-0.3-0.4-0.7-0.5-1.2-0.5h-8.2V35c0,1.1-0.1,2.1-0.2,3.2c1.7-0.8,3.1-2,4.4-3.4C79.2,32,81,28.2,82.1,23.6z
		 M75.4,7.2c0.2-0.4,0.4-0.9,0.4-1.3c0-0.7-0.2-1.3-0.7-1.8c-0.5-0.5-1.1-0.7-1.8-0.7H18.9c-0.7,0-1.3,0.2-1.8,0.7
		c-0.5,0.5-0.7,1.1-0.7,1.8s0.2,1.3,0.7,1.8c0.5,0.5,1.1,0.7,1.8,0.7H29c0.9,0,1.4,0.4,1.4,1.3S30,11,29,11h-6.6v24
		c0,6.5,2.3,12.1,6.9,16.8c4.6,4.7,10.2,7,16.7,7c4.3,0,8.2-1.1,11.8-3.2s6.5-5,8.6-8.6c2.1-3.6,3.2-7.6,3.2-12V11H34.3
		c-0.8,0-1.2-0.4-1.2-1.3s0.4-1.3,1.2-1.3h38.9c0.5,0,0.9-0.1,1.2-0.3C74.8,7.9,75.1,7.6,75.4,7.2z M39.5,79h13.1
		c-2-3.6-3.2-9.5-3.5-17.8c-1.1,0.1-2.1,0.2-3,0.2c-0.9,0-2-0.1-3-0.2C42.7,69.5,41.5,75.4,39.5,79z M21.7,45.1
		c-0.5-1.2-0.9-2.4-1.2-3.7c-2.7-1.1-5-2.7-6.9-4.8c-2.8-3.2-4.8-7.3-6-12.2c-0.4-1.3-0.1-2.5,0.8-3.5c0.9-1.1,2-1.6,3.3-1.6h8.2V16
		h-8.2c-2.4,0-4.3,0.9-5.8,2.8c-1.5,1.8-2,3.9-1.5,6.3c1.3,5.6,3.5,10.1,6.8,13.7C14,41.8,17.6,43.9,21.7,45.1z M20,38.2
		c-0.1-1.1-0.2-2.1-0.2-3.2V21.8h-8.2c-0.5,0-0.9,0.2-1.1,0.5c-0.3,0.3-0.4,0.8-0.4,1.2c1.1,4.6,2.9,8.3,5.5,11.2
		C16.8,36.2,18.3,37.3,20,38.2z"/>
	<path class="st0" d="M86.3,18.7c1.5,1.8,2,3.9,1.5,6.3c-0.8,3.2-2,6.1-3.4,8.7c-0.2,0.4-0.2,0.7-0.1,1c-1.2,1.3-2.9,3.6-3.2,4
		c-3,3.1-6.5,5.2-10.7,6.4c0.5-1.2,0.9-2.4,1.2-3.7c2.7-1.1,5-2.7,6.9-4.8c2.8-3.2,4.9-7.3,6-12.2c0.4-1.3,0.1-2.5-0.8-3.5
		c-0.9-1.1-2-1.6-3.3-1.6h-8.2V16h8.2C82.9,16,84.8,16.9,86.3,18.7z"/>
	<path d="M85.8,33.8c0.2,0.2,0.1,0.9-0.3,1.9c-0.2-0.1-0.3-0.2-0.5-0.3c-0.3-0.2-0.6-0.4-0.7-0.6C85,34,85.5,33.5,85.8,33.8z"/>
	<path class="st0" d="M75.7,5.8c0,0.5-0.1,0.9-0.4,1.3c-0.2,0.4-0.5,0.7-0.9,0.9c-0.3,0.2-0.8,0.3-1.2,0.3H34.3
		c-0.8,0-1.2,0.4-1.2,1.3h-2.7c0-0.9-0.5-1.3-1.4-1.3H18.9c-0.7,0-1.3-0.2-1.8-0.7c-0.5-0.5-0.7-1.1-0.7-1.8s0.2-1.3,0.7-1.8
		c0.5-0.5,1.1-0.7,1.8-0.7h54.3c0.7,0,1.3,0.2,1.8,0.7C75.5,4.6,75.7,5.1,75.7,5.8z"/>
	<path class="st0" d="M69.7,11v24c0,4.4-1.1,8.4-3.2,12c-2.1,3.6-5,6.5-8.6,8.6s-7.5,3.2-11.8,3.2c-6.5,0-12.1-2.3-16.7-7
		c-4.6-4.7-6.9-10.3-6.9-16.8V11H29c0.9,0,1.4-0.4,1.4-1.3h2.7c0,0.9,0.4,1.3,1.2,1.3H69.7z"/>
	<path class="st0" d="M68.6,88.9H58.3c-0.8,0-1.2,0.4-1.2,1.3l-2.8-0.1c0-0.8-0.5-1.2-1.4-1.2H23.5c2.2-4.9,5.6-7.3,9.9-7.3h25.2
		C63,81.7,66.4,84.1,68.6,88.9z"/>
	<path class="st0" d="M52.6,79H39.5c2-3.6,3.2-9.5,3.5-17.8c1.1,0.1,2.1,0.2,3,0.2c0.9,0,2-0.1,3-0.2C49.4,69.5,50.6,75.4,52.6,79z"
		/>
	<path class="st0" d="M20.5,41.4c0.4,1.3,0.8,2.5,1.2,3.7c-4.1-1.2-7.7-3.3-10.6-6.4C7.9,35.2,5.6,30.6,4.3,25
		c-0.5-2.4,0-4.5,1.5-6.3c1.5-1.8,3.4-2.8,5.8-2.8h8.2v3.2h-8.2c-1.3,0-2.4,0.5-3.3,1.6c-0.9,1.1-1.2,2.2-0.8,3.5
		c1.2,5,3.2,9,6,12.2C15.5,38.7,17.8,40.3,20.5,41.4z"/>
</g>
<g id="estrella">
	<path d="M58.4,26.9c0.4,1.2,0.1,2.2-0.8,3L54,33.3c0,0.1,0,0.2,0,0.3l0.9,4.8c0.1,1.3-0.3,2.3-1.2,3c-1,0.7-2,0.8-3.2,0.2l-4.3-2.3
		c-0.1-0.1-0.2-0.1-0.4,0l-4.3,2.3c-1.2,0.6-2.2,0.5-3.2-0.2c-1-0.7-1.4-1.7-1.2-3l0.9-4.8c0-0.1,0-0.2,0-0.3L34.5,30
		c-0.9-0.8-1.2-1.8-0.8-3c0.4-1.2,1.2-1.8,2.4-2l5-0.7c0-0.1,0.1-0.2,0.2-0.2l2.1-4.4c0.6-1.2,1.5-1.8,2.7-1.8
		c1.2,0,2.1,0.6,2.7,1.8l2.1,4.4c0.1,0,0.2,0.1,0.2,0.2l5,0.7C57.2,25.1,58,25.8,58.4,26.9z M55.8,28c0-0.1,0-0.2,0-0.3
		c0,0-0.1-0.1-0.2-0.1l-5-0.9c-1-0.1-1.7-0.6-2.1-1.6l-2.3-4.4c0-0.1-0.1-0.2-0.2-0.2c-0.1,0-0.2,0.1-0.2,0.2l-2.3,4.4
		c-0.5,1-1.2,1.5-2.1,1.6l-5,0.9c-0.1,0-0.2,0-0.2,0.1c0,0.1,0,0.1,0,0.3l3.5,3.5c0.7,0.7,1,1.5,0.9,2.5l-0.9,5
		c0,0.1,0.1,0.2,0.2,0.3c0.1,0.1,0.2,0.1,0.4,0.1l4.3-2.3c1-0.6,1.9-0.6,2.9,0l4.3,2.3c0.1,0,0.2,0,0.3-0.1c0.1,0,0.2-0.1,0.2-0.3
		l-0.9-5c-0.1-1,0.2-1.8,0.9-2.5L55.8,28z"/>
	<path class="st1" d="M55.8,27.7c0,0.1,0,0.1,0,0.3l-3.6,3.5c-0.7,0.7-1,1.5-0.9,2.5l0.9,5c0,0.1-0.1,0.2-0.2,0.3
		c-0.1,0.1-0.2,0.1-0.3,0.1l-4.3-2.3c-1-0.6-1.9-0.6-2.9,0l-4.3,2.3c-0.1,0-0.2,0-0.4-0.1c-0.1,0-0.2-0.1-0.2-0.3l0.9-5
		c0.1-1-0.2-1.8-0.9-2.5L36.3,28c0-0.1,0-0.2,0-0.3c0,0,0.1-0.1,0.2-0.1l5-0.9c0.9-0.1,1.6-0.6,2.1-1.6l2.3-4.4
		c0-0.1,0.1-0.2,0.2-0.2c0.1,0,0.2,0.1,0.2,0.2l2.3,4.4c0.5,1,1.2,1.5,2.1,1.6l5,0.9C55.8,27.6,55.8,27.7,55.8,27.7z"/>
</g>
</svg>
