<?xml version="1.0" encoding="utf-8"?>
<!-- Generator: Adobe Illustrator 22.0.0, SVG Export Plug-In . SVG Version: 6.00 Build 0)  -->
<svg version="1.1" id="Capa_1" xmlns="http://www.w3.org/2000/svg" xmlns:xlink="http://www.w3.org/1999/xlink" x="0px" y="0px"
	 viewBox="0 0 56.4 57" style="enable-background:new 0 0 56.4 57;" xml:space="preserve">
<style type="text/css">
	.st0{fill:#1077F7;}
</style>
<g>
	<g>
		<path class="st0" d="M28,35.7V15.8c-0.6,0.1-1.1,0.1-1.7,0.2H10.1c-0.9,0-1.6,0.7-1.6,1.6v1.6H3.6C2.7,19.3,2,20,2,20.9v9.7
			c0,0.9,0.7,1.6,1.6,1.6h4.9v1.6c0,0.9,0.7,1.6,1.6,1.6h1l6.5,17.4c0.4,1,1.3,1.8,2.4,2c0.2,0,0.4,0.1,0.6,0.1c0.9,0,1.7-0.3,2.3-1
			l3.9-3.9c1-1,1.2-2.6,0.6-3.8L22,35.5h4.3C26.9,35.5,27.4,35.6,28,35.7z"/>
	</g>
</g>
<g>
	<g>
		<path class="st0" d="M53.7,3.8c0-0.1-0.1-0.1-0.1-0.2c-0.2-0.2-0.4-0.4-0.7-0.5c0,0,0,0,0,0c0,0-0.1,0-0.1,0
			c-0.1,0-0.3-0.1-0.5-0.1c-0.1,0-0.2,0-0.3,0.1c-0.1,0-0.1,0-0.2,0c-0.3,0.1-0.5,0.2-0.7,0.5c0,0,0,0,0,0
			C46.1,9.8,39,13.9,31.3,15.4v20.8c7.7,1.5,14.8,5.6,19.9,11.8c0,0,0,0,0.1,0c0.1,0.1,0.3,0.2,0.4,0.3c0,0,0.1,0.1,0.1,0.1
			c0.2,0.1,0.4,0.1,0.7,0.1c0.2,0,0.4,0,0.5-0.1c0,0,0,0,0,0c0.3-0.1,0.5-0.3,0.7-0.5c0-0.1,0.1-0.1,0.1-0.2
			c0.2-0.3,0.3-0.5,0.3-0.8V4.6C54,4.3,53.9,4.1,53.7,3.8z"/>
	</g>
</g>
</svg>
