<?xml version="1.0" encoding="utf-8"?>
<!-- Generator: Adobe Illustrator 22.0.0, SVG Export Plug-In . SVG Version: 6.00 Build 0)  -->
<svg version="1.1" id="Capa_1" xmlns="http://www.w3.org/2000/svg" xmlns:xlink="http://www.w3.org/1999/xlink" x="0px" y="0px"
	 viewBox="0 0 234 57" style="enable-background:new 0 0 234 57;" xml:space="preserve">
<style type="text/css">
	.st0{fill:#FFFFFF;}
	.st1{fill:#1077F7;}
</style>
<g id="_x23_logo">
	<g>
		<path class="st0" d="M69.6,28.6H64v8.7h6.4L70,40.4h-9.3V15.3h9.3v3.1H64v7.1h5.6V28.6z"/>
		<path class="st0" d="M75.2,33.1v1.5c0,2.1,0.7,3.2,2.3,3.2c1.6,0,2.2-1.4,2.2-3.5c0-2.8-0.6-3.8-3.3-5.9c-2.7-2.1-4.1-3.4-4.1-7.2
			c0-3.3,1-6.5,5.3-6.5c4.3,0,5.1,3,5.1,5.9V22h-3.3v-1.2c0-1.9-0.3-3.1-1.8-3.1c-1.5,0-1.8,1.3-1.8,3.1c0,2,0.4,2.9,2.6,4.6
			c3.6,2.7,4.8,4.3,4.8,8.5c0,3.6-1.1,6.9-5.6,6.9c-4.4,0-5.5-2.8-5.5-6.1v-1.5H75.2z"/>
		<path class="st0" d="M88,18.4h-4v-3.1h11.5v3.1h-4.1v22H88V18.4z"/>
		<path class="st0" d="M108.2,21.7v12.1c0,4.6-1.9,6.9-6,6.9c-4,0-5.7-2.4-5.7-6.8V21.7c0-4.6,2.2-6.8,5.9-6.8
			C106.2,14.9,108.2,17.2,108.2,21.7z M100,21.4v12.8c0,2.4,0.9,3.4,2.4,3.4c1.6,0,2.4-1,2.4-3.5V21.4c0-2.3-0.7-3.5-2.4-3.5
			C100.8,18,100,19.1,100,21.4z"/>
		<path class="st0" d="M125.1,28.6h-5.6v8.7h6.4l-0.4,3.1h-9.3V15.3h9.3v3.1h-5.9v7.1h5.6V28.6z"/>
		<path class="st0" d="M130.7,33.1v1.5c0,2.1,0.7,3.2,2.3,3.2c1.6,0,2.2-1.4,2.2-3.5c0-2.8-0.6-3.8-3.3-5.9
			c-2.7-2.1-4.1-3.4-4.1-7.2c0-3.3,1-6.5,5.3-6.5c4.3,0,5.1,3,5.1,5.9V22h-3.3v-1.2c0-1.9-0.3-3.1-1.8-3.1c-1.5,0-1.8,1.3-1.8,3.1
			c0,2,0.4,2.9,2.6,4.6c3.6,2.7,4.8,4.3,4.8,8.5c0,3.6-1.1,6.9-5.6,6.9c-4.4,0-5.5-2.8-5.5-6.1v-1.5H130.7z"/>
		<path class="st0" d="M149.3,15.3v19.3c0,1.9,0.7,3.1,2.3,3.1c1.7,0,2.3-1.2,2.3-3.1V15.3h3.4v19.2c0,3.9-1.8,6.3-5.7,6.3
			c-3.8,0-5.6-2.1-5.6-6.2V15.3H149.3z"/>
		<path class="st0" d="M160.7,40.4V15.3h3.9c1.2,4,4.4,16.7,4.7,18.4h0c-0.2-3.2-0.2-6.8-0.2-10.9v-7.5h3.1v25.1h-3.8
			c-1-3.7-4.5-17.5-4.8-19h0c0.2,3,0.2,6.7,0.2,11.2v7.8H160.7z"/>
		<path class="st1" d="M180.9,15.3h3.4v22.1h6.3l-0.3,3h-9.4V15.3z"/>
		<path class="st1" d="M203.4,21.7v12.1c0,4.6-1.9,6.9-6,6.9c-4,0-5.7-2.4-5.7-6.8V21.7c0-4.6,2.2-6.8,5.9-6.8
			C201.4,14.9,203.4,17.2,203.4,21.7z M195.1,21.4v12.8c0,2.4,0.9,3.4,2.4,3.4c1.6,0,2.4-1,2.4-3.5V21.4c0-2.3-0.7-3.5-2.4-3.5
			C195.9,18,195.1,19.1,195.1,21.4z"/>
		<path class="st1" d="M217.3,40.4h-2.6c-0.1-0.4-0.2-1.5-0.2-2c-0.7,1.8-2.1,2.4-3.7,2.4c-3.6,0-4.8-2.6-4.8-6.8V21.8
			c0-4.1,1.6-6.9,5.7-6.9c4.9,0,5.6,3.6,5.6,6.5v0.7h-3.4v-0.9c0-1.5-0.2-3.2-2.2-3.2c-1.6,0-2.3,1-2.3,3.4v12.9
			c0,2.2,0.6,3.5,2.2,3.5c1.9,0,2.3-1.7,2.3-4.6v-3.8h-2.4v-2.9h5.8V40.4z"/>
		<path class="st1" d="M231.8,21.7v12.1c0,4.6-1.9,6.9-6,6.9c-4,0-5.7-2.4-5.7-6.8V21.7c0-4.6,2.2-6.8,5.9-6.8
			C229.8,14.9,231.8,17.2,231.8,21.7z M223.6,21.4v12.8c0,2.4,0.9,3.4,2.4,3.4c1.6,0,2.4-1,2.4-3.5V21.4c0-2.3-0.7-3.5-2.4-3.5
			C224.4,18,223.6,19.1,223.6,21.4z"/>
	</g>
	<g>
		<g>
			<path class="st1" d="M28,35.7V15.8c-0.6,0.1-1.1,0.1-1.7,0.2H10.1c-0.9,0-1.6,0.7-1.6,1.6v1.6H3.6C2.7,19.3,2,20,2,20.9v9.7
				c0,0.9,0.7,1.6,1.6,1.6h4.9v1.6c0,0.9,0.7,1.6,1.6,1.6h1l6.5,17.4c0.4,1,1.3,1.8,2.4,2c0.2,0,0.4,0.1,0.6,0.1
				c0.9,0,1.7-0.3,2.3-1l3.9-3.9c1-1,1.2-2.6,0.6-3.8L22,35.5h4.3C26.9,35.5,27.4,35.6,28,35.7z"/>
		</g>
	</g>
	<g>
		<g>
			<path class="st1" d="M53.7,3.8c0-0.1-0.1-0.1-0.1-0.2c-0.2-0.2-0.4-0.4-0.7-0.5c0,0,0,0,0,0c0,0-0.1,0-0.1,0
				c-0.1,0-0.3-0.1-0.5-0.1c-0.1,0-0.2,0-0.3,0.1c-0.1,0-0.1,0-0.2,0c-0.3,0.1-0.5,0.2-0.7,0.5c0,0,0,0,0,0
				C46.1,9.8,39,13.9,31.3,15.4v20.8c7.7,1.5,14.8,5.6,19.9,11.8c0,0,0,0,0.1,0c0.1,0.1,0.3,0.2,0.4,0.3c0,0,0.1,0.1,0.1,0.1
				c0.2,0.1,0.4,0.1,0.7,0.1c0.2,0,0.4,0,0.5-0.1c0,0,0,0,0,0c0.3-0.1,0.5-0.3,0.7-0.5c0-0.1,0.1-0.1,0.1-0.2
				c0.2-0.3,0.3-0.5,0.3-0.8V4.6C54,4.3,53.9,4.1,53.7,3.8z"/>
		</g>
	</g>
</g>
</svg>
